<?xml version="1.0" encoding="UTF-8" standalone="no"?>
<!DOCTYPE svg PUBLIC "-//W3C//DTD SVG 1.1//EN" "http://www.w3.org/Graphics/SVG/1.1/DTD/svg11.dtd">
<svg xmlns="http://www.w3.org/2000/svg" version="1.1" viewBox="0.00 0.00 522.00 48.00">
<path fill="#000000" d="
  M 214.83 22.35
  C 207.62 27.28 211.81 43.27 222.12 37.19
  Q 222.53 36.94 222.76 36.51
  Q 223.11 35.85 223.68 35.38
  Q 224.14 34.99 223.85 35.52
  C 219.93 42.73 207.85 41.18 207.35 32.26
  C 207.08 27.34 210.39 24.32 213.98 21.59
  A 0.86 0.85 52.9 0 0 214.14 20.40
  C 211.21 16.54 209.21 10.33 214.81 7.41
  Q 215.26 7.17 215.76 7.25
  Q 216.34 7.34 216.89 7.11
  Q 217.32 6.92 217.79 6.88
  Q 221.76 6.49 223.35 8.66
  C 226.91 13.53 223.27 16.99 219.34 19.42
  A 0.72 0.72 0.0 0 0 219.12 20.43
  Q 222.12 24.94 225.56 29.30
  C 228.07 32.49 229.83 35.28 233.30 37.65
  A 3.09 3.09 0.0 0 0 237.24 37.27
  L 238.01 36.50
  Q 238.54 35.96 238.31 36.68
  C 236.07 43.66 228.33 38.65 225.26 35.55
  Q 224.31 34.59 223.42 33.25
  Q 219.66 27.64 215.44 22.44
  Q 215.18 22.11 214.83 22.35
  Z
  M 219.50 18.55
  Q 222.35 13.78 220.76 9.81
  C 219.53 6.72 215.00 6.79 214.03 9.99
  C 213.21 12.68 216.17 17.20 217.97 18.79
  A 1.01 1.01 0.0 0 0 219.50 18.55
  Z"
/>
<path fill="#000000" d="
  M 32.30 23.57
  Q 32.10 33.57 32.26 37.75
  Q 32.28 38.34 32.93 38.51
  Q 33.40 38.63 32.98 38.86
  C 31.43 39.69 26.61 39.23 24.84 39.20
  Q 22.73 39.16 24.64 38.25
  Q 27.34 36.96 27.23 33.45
  C 27.00 26.58 27.30 19.64 27.19 12.75
  Q 27.14 8.93 24.18 8.27
  Q 19.55 7.22 24.50 7.22
  L 46.76 7.19
  A 0.63 0.62 86.3 0 1 47.38 7.74
  Q 47.79 10.94 47.96 14.08
  Q 47.97 14.29 47.87 14.38
  Q 47.77 14.47 47.62 14.49
  Q 47.53 14.50 47.50 14.40
  C 45.31 7.52 38.81 7.48 32.88 7.87
  A 0.66 0.65 -1.9 0 0 32.26 8.52
  L 32.22 21.22
  A 0.63 0.62 6.4 0 0 32.71 21.83
  Q 39.12 23.34 40.10 17.18
  A 0.38 0.37 -82.4 0 1 40.50 16.87
  L 40.76 16.88
  Q 40.93 16.90 40.92 17.07
  Q 40.80 20.67 40.93 28.48
  Q 40.94 28.78 40.69 28.89
  Q 40.31 29.06 40.20 28.66
  C 39.07 24.64 37.30 22.07 32.74 23.03
  Q 32.31 23.12 32.30 23.57
  Z"
/>
<path fill="#000000" d="
  M 80.01 8.47
  Q 79.97 21.17 80.02 33.86
  C 80.03 36.65 81.30 38.25 83.96 38.75
  A 0.17 0.16 17.9 0 1 84.08 38.98
  Q 84.02 39.10 83.96 39.23
  Q 83.95 39.25 83.92 39.25
  Q 78.20 39.16 72.51 39.20
  Q 69.65 39.23 72.32 38.34
  Q 74.89 37.50 74.85 33.50
  Q 74.75 20.87 74.75 8.30
  A 0.43 0.43 0.0 0 0 74.34 7.87
  C 69.39 7.66 63.57 8.60 62.03 14.34
  Q 61.96 14.62 61.68 14.66
  Q 61.51 14.68 61.36 14.62
  A 0.23 0.23 0.0 0 1 61.21 14.39
  L 61.52 7.70
  A 0.53 0.52 1.1 0 1 62.05 7.20
  L 92.35 7.18
  A 0.95 0.95 0.0 0 1 93.30 8.08
  L 93.71 14.98
  Q 93.77 16.00 93.34 15.08
  Q 90.90 9.82 87.78 8.90
  Q 84.23 7.86 80.56 7.92
  Q 80.01 7.92 80.01 8.47
  Z"
/>
<path fill="#000000" d="
  M 122.59 27.31
  C 121.24 24.00 119.64 22.28 115.68 22.98
  A 0.55 0.54 85.0 0 0 115.24 23.52
  L 115.23 37.78
  A 0.61 0.60 -86.2 0 0 115.75 38.38
  L 117.21 38.59
  Q 117.77 38.67 117.23 38.84
  C 114.71 39.66 110.73 39.26 108.59 39.23
  Q 104.97 39.19 108.34 37.87
  Q 109.79 37.31 109.84 34.50
  Q 110.10 18.09 109.98 12.75
  Q 109.87 8.35 105.32 7.81
  Q 105.27 7.80 105.28 7.75
  L 105.31 7.40
  Q 105.32 7.18 105.54 7.18
  L 129.36 7.14
  A 0.85 0.85 0.0 0 1 130.21 7.91
  L 130.80 14.22
  Q 130.91 15.41 130.41 14.33
  C 129.23 11.74 127.86 9.54 124.96 8.67
  Q 120.41 7.30 115.61 8.04
  Q 115.18 8.10 115.18 8.54
  L 115.24 21.03
  Q 115.24 22.30 116.52 22.24
  Q 121.72 21.96 122.56 18.67
  Q 122.65 18.32 122.81 18.21
  Q 122.94 18.11 123.09 18.11
  A 0.38 0.37 87.5 0 1 123.46 18.46
  C 123.67 20.80 123.34 23.27 123.65 25.55
  Q 123.79 26.55 123.37 27.35
  Q 122.93 28.16 122.59 27.31
  Z"
/>
<path fill="#000000" d="
  M 164.49 23.82
  C 168.41 25.58 169.62 36.73 173.92 38.33
  Q 175.70 38.99 173.76 39.14
  Q 170.79 39.37 167.81 39.21
  A 0.96 0.95 -8.8 0 1 166.96 38.59
  Q 164.74 32.69 161.56 27.23
  Q 159.66 23.98 156.36 23.74
  Q 156.28 23.73 156.22 23.66
  Q 156.12 23.52 156.24 23.40
  Q 156.29 23.34 156.39 23.33
  C 157.96 23.04 159.56 23.09 160.93 22.40
  Q 164.36 20.67 164.68 17.15
  Q 165.48 8.18 156.10 7.71
  Q 155.00 7.65 155.00 8.75
  Q 155.03 20.99 154.95 33.75
  Q 154.92 37.32 158.13 38.41
  Q 158.67 38.60 158.25 39.00
  Q 158.07 39.17 157.75 39.18
  Q 152.06 39.26 146.41 39.27
  Q 146.23 39.27 146.22 39.09
  L 146.20 38.82
  A 0.47 0.47 0.0 0 1 146.60 38.31
  Q 149.51 37.87 149.66 35.52
  Q 150.39 24.13 149.95 12.74
  Q 149.83 9.68 145.83 7.53
  Q 145.17 7.18 145.93 7.17
  Q 152.30 7.09 159.24 7.14
  C 165.80 7.18 172.66 10.80 169.87 18.49
  C 169.01 20.86 166.80 22.21 164.54 22.96
  Q 163.40 23.33 164.49 23.82
  Z"
/>
<path fill="#000000" d="
  M 289.84 31.89
  Q 293.20 23.55 296.83 14.76
  C 297.49 13.16 297.85 8.42 295.36 7.81
  Q 292.40 7.08 295.50 7.10
  L 302.99 7.13
  A 0.36 0.36 0.0 0 1 303.16 7.80
  Q 300.53 9.27 299.13 12.56
  Q 293.60 25.58 288.11 38.62
  Q 287.87 39.19 287.47 39.29
  A 0.91 0.90 72.2 0 1 286.38 38.72
  Q 281.46 25.23 276.15 11.95
  Q 274.75 8.44 271.07 7.69
  Q 270.80 7.64 270.75 7.49
  Q 270.73 7.44 270.73 7.38
  Q 270.73 7.19 270.75 7.19
  L 284.72 7.21
  Q 285.52 7.21 284.92 7.73
  Q 284.41 8.17 283.71 8.24
  Q 283.21 8.29 282.87 8.66
  Q 281.23 10.48 282.12 12.97
  Q 285.55 22.57 288.98 31.88
  Q 289.40 33.00 289.84 31.89
  Z"
/>
<path fill="#000000" d="
  M 316.15 7.83
  A 0.31 0.31 0.0 0 1 316.24 7.23
  L 327.78 7.15
  A 0.48 0.48 0.0 0 1 327.94 8.09
  C 324.61 9.26 324.86 12.82 324.80 16.61
  Q 324.68 24.43 324.84 32.25
  C 324.91 36.07 325.15 37.16 328.58 38.74
  Q 329.53 39.18 328.49 39.18
  L 315.84 39.26
  Q 315.61 39.26 315.63 39.04
  Q 315.65 38.87 315.66 38.70
  Q 315.67 38.60 315.77 38.58
  Q 319.67 37.85 319.73 33.71
  Q 319.87 23.16 319.55 12.62
  Q 319.44 8.87 316.15 7.83
  Z"
/>
<path fill="#000000" d="
  M 342.50 7.19
  L 372.79 7.15
  Q 373.18 7.15 373.20 7.54
  L 373.57 14.74
  A 0.24 0.24 0.0 0 1 373.11 14.85
  C 371.48 11.37 370.64 9.63 366.73 8.64
  Q 363.57 7.84 360.27 7.85
  A 0.47 0.46 -89.4 0 0 359.81 8.31
  Q 359.71 20.19 359.78 32.25
  Q 359.79 35.16 360.91 37.25
  Q 361.16 37.71 361.63 37.90
  L 363.56 38.67
  A 0.30 0.29 56.0 0 1 363.45 39.24
  L 351.25 39.18
  Q 350.09 39.17 351.12 38.63
  L 353.20 37.55
  A 1.61 1.58 -0.8 0 0 353.89 36.85
  Q 354.65 35.29 354.67 33.50
  Q 354.81 21.02 354.73 8.53
  Q 354.73 8.04 354.24 8.01
  Q 349.28 7.63 346.66 8.92
  Q 342.61 10.93 341.94 13.91
  Q 341.15 17.42 341.14 13.82
  Q 341.13 11.36 341.50 8.00
  Q 341.54 7.70 341.73 7.54
  Q 342.14 7.19 342.50 7.19
  Z"
/>
<path fill="#000000" d="
  M 395.77 25.79
  Q 396.23 26.09 395.72 26.29
  Q 395.04 26.57 394.24 26.40
  A 1.38 1.37 -73.1 0 0 392.68 27.24
  C 391.71 29.71 388.22 36.74 391.76 38.28
  Q 393.98 39.25 391.50 39.24
  L 385.23 39.23
  A 0.55 0.55 0.0 0 1 385.08 38.15
  C 387.15 37.58 389.06 33.96 390.08 31.26
  Q 394.58 19.41 399.14 7.62
  A 0.82 0.82 0.0 0 1 399.57 7.16
  Q 400.43 6.75 400.83 7.74
  Q 406.28 21.00 411.64 34.30
  Q 413.05 37.80 415.22 38.42
  Q 418.34 39.31 415.10 39.24
  Q 410.88 39.14 406.01 39.31
  Q 405.04 39.34 404.21 38.93
  Q 403.65 38.65 404.23 38.43
  C 408.71 36.75 404.95 30.55 403.72 27.58
  A 1.71 1.70 80.9 0 0 402.28 26.53
  L 400.53 26.39
  Q 398.72 26.25 400.48 25.83
  L 402.08 25.45
  A 0.61 0.61 0.0 0 0 402.50 24.63
  L 398.34 14.32
  A 0.38 0.38 0.0 0 0 397.64 14.33
  L 393.68 24.52
  A 0.63 0.63 0.0 0 0 394.30 25.38
  Q 395.11 25.35 395.77 25.79
  Z"
/>
<path fill="#000000" d="
  M 438.84 38.36
  L 439.26 38.56
  Q 439.51 38.68 439.25 38.79
  C 436.95 39.79 431.54 39.24 428.90 39.21
  Q 428.70 39.21 428.63 39.12
  Q 428.54 39.03 428.56 38.88
  Q 428.56 38.81 428.63 38.79
  C 431.49 38.35 432.91 36.70 433.05 33.72
  Q 433.72 19.51 433.04 11.75
  Q 432.74 8.35 428.72 7.80
  Q 428.38 7.75 428.41 7.41
  L 428.43 7.15
  Q 428.43 7.06 428.53 7.06
  Q 435.50 7.30 442.22 7.15
  Q 442.83 7.14 442.33 7.63
  Q 442.07 7.89 441.19 8.25
  Q 438.64 9.28 438.54 12.20
  Q 438.11 24.92 438.37 37.64
  Q 438.38 38.15 438.84 38.36
  Z"
/>
<path fill="#000000" d="
  M 478.19 21.97
  C 480.77 22.21 484.24 21.98 484.69 19.51
  Q 484.93 18.19 485.17 17.72
  Q 486.02 16.04 486.01 17.75
  L 485.91 26.76
  Q 485.88 29.20 485.02 26.92
  Q 483.20 22.10 477.83 23.09
  A 0.37 0.37 0.0 0 0 477.54 23.44
  Q 477.52 30.35 477.51 37.33
  Q 477.51 37.84 477.72 38.11
  Q 477.99 38.47 478.48 38.60
  Q 478.77 38.67 478.53 38.84
  Q 478.19 39.09 478.01 39.10
  Q 473.26 39.49 468.53 39.05
  Q 467.66 38.97 468.48 38.67
  L 470.65 37.90
  A 1.16 1.15 4.1 0 0 471.28 37.36
  Q 472.39 35.27 472.43 32.50
  Q 472.56 23.63 472.45 14.75
  C 472.41 11.30 472.02 8.28 467.91 7.76
  A 0.26 0.26 0.0 0 1 467.68 7.48
  L 467.69 7.23
  Q 467.69 7.18 467.75 7.18
  L 492.21 7.20
  A 0.64 0.64 0.0 0 1 492.85 7.83
  Q 492.90 10.56 492.96 13.47
  Q 492.97 13.89 492.50 14.54
  Q 492.18 14.98 492.08 14.45
  C 491.93 13.65 492.06 12.92 491.69 12.20
  C 489.28 7.52 482.67 7.40 478.02 7.96
  Q 477.51 8.02 477.52 8.53
  L 477.57 21.30
  Q 477.57 21.92 478.19 21.97
  Z"
/>
<path fill="#000000" d="
  M 228.15 27.58
  C 228.73 25.15 230.77 21.45 226.60 20.75
  Q 226.12 20.67 226.45 20.32
  Q 226.63 20.14 227.01 20.12
  C 229.22 19.96 232.94 19.56 234.96 20.63
  A 0.12 0.12 0.0 0 1 234.91 20.85
  C 230.68 21.24 229.44 26.19 227.92 29.17
  Q 226.91 31.14 227.04 28.93
  Q 227.06 28.56 227.61 28.26
  Q 228.03 28.04 228.15 27.58
  Z"
/>
<path fill="#000000" d="
  M 485.99 38.76
  C 491.93 38.12 493.50 35.40 495.35 30.23
  Q 495.47 29.90 495.81 29.99
  L 496.07 30.05
  Q 496.16 30.08 496.14 30.17
  Q 495.38 34.42 495.51 38.33
  A 0.76 0.76 0.0 0 1 494.71 39.12
  L 485.99 38.76
  Z"
/>
<path fill="#000000" d="
  M 455.76 39.18
  C 452.06 39.54 448.04 39.15 444.41 38.60
  Q 444.39 38.59 444.41 38.59
  C 447.08 38.16 450.20 38.67 452.48 36.78
  C 454.29 35.28 455.02 32.72 455.81 30.46
  Q 456.01 29.91 456.45 30.30
  Q 456.78 30.59 456.73 31.01
  Q 456.21 35.47 456.23 38.65
  Q 456.23 39.13 455.76 39.18
  Z"
/>
<path fill="#000000" d="
  M 41.94 38.36
  C 45.58 37.67 47.93 36.80 48.83 32.95
  Q 49.16 31.51 49.93 30.88
  Q 50.68 30.26 50.62 31.23
  L 50.16 38.57
  Q 50.12 39.27 49.42 39.26
  L 42.01 39.21
  A 0.43 0.43 0.0 0 1 41.94 38.36
  Z"
/>
<path fill="#000000" d="
  M 123.17 38.42
  C 129.26 38.55 130.60 36.20 132.42 31.01
  Q 132.61 30.49 132.97 30.91
  Q 133.16 31.12 133.17 31.50
  Q 133.28 35.09 132.91 38.69
  Q 132.84 39.35 132.18 39.33
  L 123.39 39.00
  Q 123.13 38.99 123.13 38.73
  L 123.13 38.45
  Q 123.13 38.42 123.17 38.42
  Z"
/>
<ellipse fill="#000000" cx="0.00" cy="0.00" transform="translate(37.66,38.74) rotate(1.2)" rx="1.55" ry="0.35"/>
<path fill="#000000" d="
  M 485.99 38.76
  L 480.10 38.65
  A 0.01 0.00 19.3 0 1 480.09 38.64
  Q 480.09 38.64 480.09 38.64
  Q 480.09 38.64 480.10 38.65
  L 485.99 38.76
  Z"
/>
</svg>
